<mxfile host="app.diagrams.net" agent="Mozilla/5.0 (Windows NT 10.0; Win64; x64) AppleWebKit/537.36 (KHTML, like Gecko) Chrome/138.0.0.0 Safari/537.36" version="27.2.0">
  <diagram name="PÃ¡gina-1" id="TGySJNzwh5DUvGHJewyj">
    <mxGraphModel dx="1342" dy="663" grid="1" gridSize="10" guides="1" tooltips="1" connect="1" arrows="1" fold="1" page="1" pageScale="1" pageWidth="827" pageHeight="1169" math="0" shadow="0">
      <root>
        <mxCell id="0" />
        <mxCell id="1" parent="0" />
        <mxCell id="D4AIVkhYn-2Lcm_9Q2JB-867" value="" style="edgeStyle=orthogonalEdgeStyle;rounded=0;orthogonalLoop=1;jettySize=auto;html=1;" parent="1" source="D4AIVkhYn-2Lcm_9Q2JB-865" target="D4AIVkhYn-2Lcm_9Q2JB-866" edge="1">
          <mxGeometry relative="1" as="geometry" />
        </mxCell>
        <mxCell id="D4AIVkhYn-2Lcm_9Q2JB-865" value="&lt;font style=&quot;font-size: 10px;&quot;&gt;inicio&lt;/font&gt;" style="ellipse;whiteSpace=wrap;html=1;" parent="1" vertex="1">
          <mxGeometry x="295" y="10" width="50" height="30" as="geometry" />
        </mxCell>
        <mxCell id="D4AIVkhYn-2Lcm_9Q2JB-869" value="" style="edgeStyle=orthogonalEdgeStyle;rounded=0;orthogonalLoop=1;jettySize=auto;html=1;" parent="1" source="D4AIVkhYn-2Lcm_9Q2JB-866" target="D4AIVkhYn-2Lcm_9Q2JB-868" edge="1">
          <mxGeometry relative="1" as="geometry" />
        </mxCell>
        <mxCell id="D4AIVkhYn-2Lcm_9Q2JB-866" value="&lt;font style=&quot;font-size: 10px;&quot;&gt;combatMenu(parameters[], size, player, enemy)&lt;/font&gt;" style="ellipse;whiteSpace=wrap;html=1;" parent="1" vertex="1">
          <mxGeometry x="250" y="60" width="140" height="40" as="geometry" />
        </mxCell>
        <mxCell id="D4AIVkhYn-2Lcm_9Q2JB-873" value="" style="edgeStyle=orthogonalEdgeStyle;rounded=0;orthogonalLoop=1;jettySize=auto;html=1;" parent="1" source="D4AIVkhYn-2Lcm_9Q2JB-868" target="D4AIVkhYn-2Lcm_9Q2JB-872" edge="1">
          <mxGeometry relative="1" as="geometry" />
        </mxCell>
        <mxCell id="D4AIVkhYn-2Lcm_9Q2JB-868" value="&lt;div&gt;&lt;font style=&quot;font-size: 10px;&quot;&gt;int option&lt;/font&gt;&lt;/div&gt;&lt;font style=&quot;font-size: 10px;&quot;&gt;timer(1)&lt;/font&gt;&lt;div&gt;&lt;font style=&quot;font-size: 10px;&quot;&gt;clearScreen()&lt;/font&gt;&lt;/div&gt;" style="rounded=0;whiteSpace=wrap;html=1;" parent="1" vertex="1">
          <mxGeometry x="280" y="120" width="80" height="40" as="geometry" />
        </mxCell>
        <mxCell id="D4AIVkhYn-2Lcm_9Q2JB-875" value="" style="edgeStyle=orthogonalEdgeStyle;rounded=0;orthogonalLoop=1;jettySize=auto;html=1;" parent="1" source="D4AIVkhYn-2Lcm_9Q2JB-872" target="D4AIVkhYn-2Lcm_9Q2JB-874" edge="1">
          <mxGeometry relative="1" as="geometry" />
        </mxCell>
        <mxCell id="D4AIVkhYn-2Lcm_9Q2JB-872" value="&lt;font style=&quot;font-size: 10px;&quot;&gt;secondMenu(2, palyer, enemy)&lt;/font&gt;&lt;div&gt;&lt;font style=&quot;font-size: 10px;&quot;&gt;secondMenu(3&lt;/font&gt;&lt;span style=&quot;font-size: 10px; background-color: transparent; color: light-dark(rgb(0, 0, 0), rgb(255, 255, 255));&quot;&gt;, palyer, enemy&lt;/span&gt;&lt;span style=&quot;font-size: 10px; background-color: transparent; color: light-dark(rgb(0, 0, 0), rgb(255, 255, 255));&quot;&gt;)&lt;/span&gt;&lt;/div&gt;&lt;div&gt;&lt;font style=&quot;font-size: 10px;&quot;&gt;secondMenu(1&lt;/font&gt;&lt;span style=&quot;color: light-dark(rgb(0, 0, 0), rgb(255, 255, 255)); background-color: transparent; font-size: 10px;&quot;&gt;, palyer, enemy&lt;/span&gt;&lt;span style=&quot;color: light-dark(rgb(0, 0, 0), rgb(255, 255, 255)); background-color: transparent; font-size: 10px;&quot;&gt;)&lt;/span&gt;&lt;span style=&quot;font-size: 10px; background-color: transparent; color: light-dark(rgb(0, 0, 0), rgb(255, 255, 255));&quot;&gt;&lt;/span&gt;&lt;/div&gt;" style="rounded=0;whiteSpace=wrap;html=1;" parent="1" vertex="1">
          <mxGeometry x="240" y="180" width="160" height="50" as="geometry" />
        </mxCell>
        <mxCell id="D4AIVkhYn-2Lcm_9Q2JB-878" value="" style="edgeStyle=orthogonalEdgeStyle;rounded=0;orthogonalLoop=1;jettySize=auto;html=1;" parent="1" source="D4AIVkhYn-2Lcm_9Q2JB-874" target="D4AIVkhYn-2Lcm_9Q2JB-876" edge="1">
          <mxGeometry relative="1" as="geometry" />
        </mxCell>
        <mxCell id="D4AIVkhYn-2Lcm_9Q2JB-874" value="&lt;font style=&quot;font-size: 10px;&quot;&gt;option&lt;/font&gt;" style="shape=parallelogram;perimeter=parallelogramPerimeter;whiteSpace=wrap;html=1;fixedSize=1;" parent="1" vertex="1">
          <mxGeometry x="285" y="250" width="70" height="30" as="geometry" />
        </mxCell>
        <mxCell id="D4AIVkhYn-2Lcm_9Q2JB-880" value="" style="edgeStyle=orthogonalEdgeStyle;rounded=0;orthogonalLoop=1;jettySize=auto;html=1;" parent="1" source="D4AIVkhYn-2Lcm_9Q2JB-876" target="D4AIVkhYn-2Lcm_9Q2JB-879" edge="1">
          <mxGeometry relative="1" as="geometry" />
        </mxCell>
        <mxCell id="D4AIVkhYn-2Lcm_9Q2JB-876" value="&lt;font style=&quot;font-size: 10px;&quot;&gt;cinControl()&lt;/font&gt;" style="rounded=0;whiteSpace=wrap;html=1;" parent="1" vertex="1">
          <mxGeometry x="285" y="310" width="70" height="20" as="geometry" />
        </mxCell>
        <mxCell id="D4AIVkhYn-2Lcm_9Q2JB-885" style="edgeStyle=orthogonalEdgeStyle;rounded=0;orthogonalLoop=1;jettySize=auto;html=1;entryX=0.5;entryY=0;entryDx=0;entryDy=0;" parent="1" source="D4AIVkhYn-2Lcm_9Q2JB-879" target="D4AIVkhYn-2Lcm_9Q2JB-881" edge="1">
          <mxGeometry relative="1" as="geometry">
            <Array as="points">
              <mxPoint x="320" y="410" />
              <mxPoint x="240" y="410" />
            </Array>
          </mxGeometry>
        </mxCell>
        <mxCell id="D4AIVkhYn-2Lcm_9Q2JB-886" style="edgeStyle=orthogonalEdgeStyle;rounded=0;orthogonalLoop=1;jettySize=auto;html=1;entryX=0.5;entryY=0;entryDx=0;entryDy=0;" parent="1" source="D4AIVkhYn-2Lcm_9Q2JB-879" target="D4AIVkhYn-2Lcm_9Q2JB-882" edge="1">
          <mxGeometry relative="1" as="geometry">
            <Array as="points">
              <mxPoint x="320" y="410" />
              <mxPoint x="360" y="410" />
            </Array>
          </mxGeometry>
        </mxCell>
        <mxCell id="D4AIVkhYn-2Lcm_9Q2JB-887" style="edgeStyle=orthogonalEdgeStyle;rounded=0;orthogonalLoop=1;jettySize=auto;html=1;" parent="1" source="D4AIVkhYn-2Lcm_9Q2JB-879" target="D4AIVkhYn-2Lcm_9Q2JB-883" edge="1">
          <mxGeometry relative="1" as="geometry">
            <Array as="points">
              <mxPoint x="320" y="410" />
              <mxPoint x="445" y="410" />
            </Array>
          </mxGeometry>
        </mxCell>
        <mxCell id="D4AIVkhYn-2Lcm_9Q2JB-888" style="edgeStyle=orthogonalEdgeStyle;rounded=0;orthogonalLoop=1;jettySize=auto;html=1;entryX=0.5;entryY=0;entryDx=0;entryDy=0;" parent="1" source="D4AIVkhYn-2Lcm_9Q2JB-879" edge="1">
          <mxGeometry relative="1" as="geometry">
            <Array as="points">
              <mxPoint x="320" y="410" />
              <mxPoint x="525" y="410" />
            </Array>
            <mxPoint x="525" y="430.0000000000001" as="targetPoint" />
          </mxGeometry>
        </mxCell>
        <mxCell id="D4AIVkhYn-2Lcm_9Q2JB-879" value="&lt;font style=&quot;font-size: 10px;&quot;&gt;option&lt;/font&gt;" style="rhombus;whiteSpace=wrap;html=1;" parent="1" vertex="1">
          <mxGeometry x="287.5" y="350" width="65" height="50" as="geometry" />
        </mxCell>
        <mxCell id="D4AIVkhYn-2Lcm_9Q2JB-894" style="edgeStyle=orthogonalEdgeStyle;rounded=0;orthogonalLoop=1;jettySize=auto;html=1;entryX=0.5;entryY=0;entryDx=0;entryDy=0;" parent="1" source="D4AIVkhYn-2Lcm_9Q2JB-881" target="D4AIVkhYn-2Lcm_9Q2JB-893" edge="1">
          <mxGeometry relative="1" as="geometry">
            <Array as="points">
              <mxPoint x="240" y="510" />
            </Array>
          </mxGeometry>
        </mxCell>
        <mxCell id="D4AIVkhYn-2Lcm_9Q2JB-881" value="&lt;font style=&quot;font-size: 10px;&quot;&gt;playEnemyAttack(&lt;/font&gt;&lt;div&gt;&lt;font style=&quot;font-size: 10px;&quot;&gt;enemy.mechanic parameters,&amp;nbsp;&lt;/font&gt;&lt;/div&gt;&lt;div&gt;&lt;font style=&quot;font-size: 10px;&quot;&gt;size, playerm, enemy&lt;/font&gt;&lt;/div&gt;" style="rounded=0;whiteSpace=wrap;html=1;" parent="1" vertex="1">
          <mxGeometry x="170" y="430" width="140" height="50" as="geometry" />
        </mxCell>
        <mxCell id="D4AIVkhYn-2Lcm_9Q2JB-895" style="edgeStyle=orthogonalEdgeStyle;rounded=0;orthogonalLoop=1;jettySize=auto;html=1;entryX=0.5;entryY=0;entryDx=0;entryDy=0;" parent="1" source="D4AIVkhYn-2Lcm_9Q2JB-882" target="D4AIVkhYn-2Lcm_9Q2JB-893" edge="1">
          <mxGeometry relative="1" as="geometry" />
        </mxCell>
        <mxCell id="D4AIVkhYn-2Lcm_9Q2JB-882" value="&lt;font style=&quot;font-size: 10px;&quot;&gt;player.useItem()&lt;/font&gt;" style="rounded=0;whiteSpace=wrap;html=1;" parent="1" vertex="1">
          <mxGeometry x="320" y="430" width="80" height="30" as="geometry" />
        </mxCell>
        <mxCell id="D4AIVkhYn-2Lcm_9Q2JB-896" style="edgeStyle=orthogonalEdgeStyle;rounded=0;orthogonalLoop=1;jettySize=auto;html=1;entryX=0.5;entryY=0;entryDx=0;entryDy=0;" parent="1" source="D4AIVkhYn-2Lcm_9Q2JB-883" target="D4AIVkhYn-2Lcm_9Q2JB-893" edge="1">
          <mxGeometry relative="1" as="geometry" />
        </mxCell>
        <mxCell id="D4AIVkhYn-2Lcm_9Q2JB-883" value="&lt;span style=&quot;font-size: 10px;&quot;&gt;exit(0)&lt;/span&gt;" style="rounded=0;whiteSpace=wrap;html=1;" parent="1" vertex="1">
          <mxGeometry x="410" y="430" width="70" height="30" as="geometry" />
        </mxCell>
        <mxCell id="D4AIVkhYn-2Lcm_9Q2JB-897" style="edgeStyle=orthogonalEdgeStyle;rounded=0;orthogonalLoop=1;jettySize=auto;html=1;entryX=0.5;entryY=0;entryDx=0;entryDy=0;exitX=0.5;exitY=1;exitDx=0;exitDy=0;" parent="1" source="lYNOwXFNP2J4_8H_eqtG-1" target="D4AIVkhYn-2Lcm_9Q2JB-893" edge="1">
          <mxGeometry relative="1" as="geometry">
            <Array as="points">
              <mxPoint x="525" y="510" />
            </Array>
            <mxPoint x="525" y="470.0000000000001" as="sourcePoint" />
          </mxGeometry>
        </mxCell>
        <mxCell id="D4AIVkhYn-2Lcm_9Q2JB-889" value="&lt;font style=&quot;font-size: 10px;&quot;&gt;case 1&lt;/font&gt;" style="text;html=1;align=center;verticalAlign=middle;resizable=0;points=[];autosize=1;strokeColor=none;fillColor=none;fontStyle=1" parent="1" vertex="1">
          <mxGeometry x="215" y="378" width="50" height="30" as="geometry" />
        </mxCell>
        <mxCell id="D4AIVkhYn-2Lcm_9Q2JB-890" value="&lt;font style=&quot;font-size: 10px;&quot;&gt;case 2&lt;/font&gt;" style="text;html=1;align=center;verticalAlign=middle;resizable=0;points=[];autosize=1;strokeColor=none;fillColor=none;" parent="1" vertex="1">
          <mxGeometry x="340" y="378" width="50" height="30" as="geometry" />
        </mxCell>
        <mxCell id="D4AIVkhYn-2Lcm_9Q2JB-891" value="&lt;span style=&quot;font-size: 10px;&quot;&gt;default&lt;/span&gt;" style="text;html=1;align=center;verticalAlign=middle;resizable=0;points=[];autosize=1;strokeColor=none;fillColor=none;" parent="1" vertex="1">
          <mxGeometry x="480" y="378" width="50" height="30" as="geometry" />
        </mxCell>
        <mxCell id="D4AIVkhYn-2Lcm_9Q2JB-892" value="&lt;font style=&quot;font-size: 10px;&quot;&gt;case 3&lt;/font&gt;" style="text;html=1;align=center;verticalAlign=middle;resizable=0;points=[];autosize=1;strokeColor=none;fillColor=none;" parent="1" vertex="1">
          <mxGeometry x="410" y="378" width="50" height="30" as="geometry" />
        </mxCell>
        <mxCell id="D4AIVkhYn-2Lcm_9Q2JB-898" style="edgeStyle=orthogonalEdgeStyle;rounded=0;orthogonalLoop=1;jettySize=auto;html=1;entryX=1;entryY=0.5;entryDx=0;entryDy=0;" parent="1" source="D4AIVkhYn-2Lcm_9Q2JB-893" target="D4AIVkhYn-2Lcm_9Q2JB-868" edge="1">
          <mxGeometry relative="1" as="geometry">
            <Array as="points">
              <mxPoint x="580" y="550" />
              <mxPoint x="580" y="155" />
            </Array>
          </mxGeometry>
        </mxCell>
        <mxCell id="D4AIVkhYn-2Lcm_9Q2JB-900" style="edgeStyle=orthogonalEdgeStyle;rounded=0;orthogonalLoop=1;jettySize=auto;html=1;" parent="1" source="D4AIVkhYn-2Lcm_9Q2JB-893" target="D4AIVkhYn-2Lcm_9Q2JB-899" edge="1">
          <mxGeometry relative="1" as="geometry" />
        </mxCell>
        <mxCell id="D4AIVkhYn-2Lcm_9Q2JB-893" value="&lt;font style=&quot;font-size: 10px;&quot;&gt;player.alive() &amp;amp;&amp;amp; enemy.alive()&lt;/font&gt;" style="rhombus;whiteSpace=wrap;html=1;" parent="1" vertex="1">
          <mxGeometry x="330" y="510" width="107.5" height="80" as="geometry" />
        </mxCell>
        <mxCell id="D4AIVkhYn-2Lcm_9Q2JB-899" value="&lt;span style=&quot;font-size: 10px;&quot;&gt;fin&lt;/span&gt;" style="ellipse;whiteSpace=wrap;html=1;" parent="1" vertex="1">
          <mxGeometry x="350.63" y="600" width="66.25" height="30" as="geometry" />
        </mxCell>
        <mxCell id="D4AIVkhYn-2Lcm_9Q2JB-904" value="" style="edgeStyle=orthogonalEdgeStyle;rounded=0;orthogonalLoop=1;jettySize=auto;html=1;" parent="1" source="D4AIVkhYn-2Lcm_9Q2JB-901" target="D4AIVkhYn-2Lcm_9Q2JB-903" edge="1">
          <mxGeometry relative="1" as="geometry" />
        </mxCell>
        <mxCell id="D4AIVkhYn-2Lcm_9Q2JB-901" value="&lt;font style=&quot;font-size: 10px;&quot;&gt;playEnemyAttack(mecanic, parameters[],size, player, enemy)&lt;/font&gt;" style="ellipse;whiteSpace=wrap;html=1;" parent="1" vertex="1">
          <mxGeometry x="313.76" y="710" width="140" height="80" as="geometry" />
        </mxCell>
        <mxCell id="D4AIVkhYn-2Lcm_9Q2JB-908" style="edgeStyle=orthogonalEdgeStyle;rounded=0;orthogonalLoop=1;jettySize=auto;html=1;entryX=0.5;entryY=0;entryDx=0;entryDy=0;exitX=0.5;exitY=1;exitDx=0;exitDy=0;" parent="1" source="D4AIVkhYn-2Lcm_9Q2JB-903" target="D4AIVkhYn-2Lcm_9Q2JB-905" edge="1">
          <mxGeometry relative="1" as="geometry">
            <Array as="points">
              <mxPoint x="384.01" y="870" />
              <mxPoint x="249.01" y="870" />
            </Array>
          </mxGeometry>
        </mxCell>
        <mxCell id="D4AIVkhYn-2Lcm_9Q2JB-910" style="edgeStyle=orthogonalEdgeStyle;rounded=0;orthogonalLoop=1;jettySize=auto;html=1;entryX=0.5;entryY=0;entryDx=0;entryDy=0;" parent="1" target="D4AIVkhYn-2Lcm_9Q2JB-907" edge="1">
          <mxGeometry relative="1" as="geometry">
            <mxPoint x="384.01" y="870" as="sourcePoint" />
          </mxGeometry>
        </mxCell>
        <mxCell id="D4AIVkhYn-2Lcm_9Q2JB-903" value="&lt;font style=&quot;font-size: 10px;&quot;&gt;mecanic&lt;/font&gt;" style="rhombus;whiteSpace=wrap;html=1;" parent="1" vertex="1">
          <mxGeometry x="343.76" y="820" width="80" height="40" as="geometry" />
        </mxCell>
        <mxCell id="D4AIVkhYn-2Lcm_9Q2JB-912" style="edgeStyle=orthogonalEdgeStyle;rounded=0;orthogonalLoop=1;jettySize=auto;html=1;" parent="1" source="D4AIVkhYn-2Lcm_9Q2JB-905" edge="1">
          <mxGeometry relative="1" as="geometry">
            <Array as="points">
              <mxPoint x="249.01" y="980" />
              <mxPoint x="390.01" y="980" />
            </Array>
            <mxPoint x="390.0100000000001" y="1000" as="targetPoint" />
          </mxGeometry>
        </mxCell>
        <mxCell id="D4AIVkhYn-2Lcm_9Q2JB-905" value="&lt;font style=&quot;font-size: 10px;&quot;&gt;numCombat(parameters[0], player, enemy);&lt;/font&gt;" style="rounded=0;whiteSpace=wrap;html=1;" parent="1" vertex="1">
          <mxGeometry x="183.76" y="890" width="130" height="40" as="geometry" />
        </mxCell>
        <mxCell id="D4AIVkhYn-2Lcm_9Q2JB-913" style="edgeStyle=orthogonalEdgeStyle;rounded=0;orthogonalLoop=1;jettySize=auto;html=1;" parent="1" source="D4AIVkhYn-2Lcm_9Q2JB-906" edge="1">
          <mxGeometry relative="1" as="geometry">
            <mxPoint x="390.0100000000001" y="1000" as="targetPoint" />
          </mxGeometry>
        </mxCell>
        <mxCell id="D4AIVkhYn-2Lcm_9Q2JB-906" value="&lt;font style=&quot;font-size: 10px;&quot;&gt;numsMemo(parameters[0], parameters[1], parameters[2], player, enemy);&lt;/font&gt;" style="rounded=0;whiteSpace=wrap;html=1;" parent="1" vertex="1">
          <mxGeometry x="330.01" y="900" width="130" height="60" as="geometry" />
        </mxCell>
        <mxCell id="lYNOwXFNP2J4_8H_eqtG-5" style="edgeStyle=orthogonalEdgeStyle;rounded=0;orthogonalLoop=1;jettySize=auto;html=1;entryX=0.5;entryY=0;entryDx=0;entryDy=0;" edge="1" parent="1" source="D4AIVkhYn-2Lcm_9Q2JB-907">
          <mxGeometry relative="1" as="geometry">
            <mxPoint x="391.8900000000001" y="1000" as="targetPoint" />
            <Array as="points">
              <mxPoint x="540.01" y="990" />
              <mxPoint x="392.01" y="990" />
            </Array>
          </mxGeometry>
        </mxCell>
        <mxCell id="D4AIVkhYn-2Lcm_9Q2JB-907" value="&lt;font style=&quot;font-size: 10px;&quot;&gt;&amp;nbsp;rockPaperScisors(player, enemy);&lt;/font&gt;" style="rounded=0;whiteSpace=wrap;html=1;" parent="1" vertex="1">
          <mxGeometry x="480.01" y="890" width="120" height="40" as="geometry" />
        </mxCell>
        <mxCell id="D4AIVkhYn-2Lcm_9Q2JB-909" style="edgeStyle=orthogonalEdgeStyle;rounded=0;orthogonalLoop=1;jettySize=auto;html=1;entryX=0.4;entryY=0.018;entryDx=0;entryDy=0;entryPerimeter=0;" parent="1" source="D4AIVkhYn-2Lcm_9Q2JB-903" target="D4AIVkhYn-2Lcm_9Q2JB-906" edge="1">
          <mxGeometry relative="1" as="geometry" />
        </mxCell>
        <mxCell id="D4AIVkhYn-2Lcm_9Q2JB-915" value="&lt;span style=&quot;font-size: 10px;&quot;&gt;fin&lt;/span&gt;" style="ellipse;whiteSpace=wrap;html=1;" parent="1" vertex="1">
          <mxGeometry x="366.88" y="980" width="50" height="30" as="geometry" />
        </mxCell>
        <mxCell id="lYNOwXFNP2J4_8H_eqtG-1" value="&lt;span style=&quot;font-size: 10px;&quot;&gt;invalid()&lt;/span&gt;" style="rounded=0;whiteSpace=wrap;html=1;" vertex="1" parent="1">
          <mxGeometry x="490" y="430" width="70" height="30" as="geometry" />
        </mxCell>
        <mxCell id="lYNOwXFNP2J4_8H_eqtG-3" value="" style="edgeStyle=orthogonalEdgeStyle;rounded=0;orthogonalLoop=1;jettySize=auto;html=1;" edge="1" parent="1" source="lYNOwXFNP2J4_8H_eqtG-2" target="D4AIVkhYn-2Lcm_9Q2JB-901">
          <mxGeometry relative="1" as="geometry" />
        </mxCell>
        <mxCell id="lYNOwXFNP2J4_8H_eqtG-2" value="&lt;font style=&quot;font-size: 10px;&quot;&gt;inicio&lt;/font&gt;" style="ellipse;whiteSpace=wrap;html=1;" vertex="1" parent="1">
          <mxGeometry x="358.77" y="660" width="50" height="30" as="geometry" />
        </mxCell>
      </root>
    </mxGraphModel>
  </diagram>
</mxfile>
